<svg width="24" height="24" viewBox="0 0 24 24" fill="none" xmlns="http://www.w3.org/2000/svg">
<path d="M12 7.33333V16.6667M7.33333 12H16.6667M7.1 22.5H16.9C18.8602 22.5 19.8403 22.5 20.589 22.1185C21.2475 21.783 21.783 21.2475 22.1185 20.589C22.5 19.8403 22.5 18.8602 22.5 16.9V7.1C22.5 5.13982 22.5 4.15972 22.1185 3.41103C21.783 2.75247 21.2475 2.21703 20.589 1.88148C19.8403 1.5 18.8602 1.5 16.9 1.5H7.1C5.13982 1.5 4.15972 1.5 3.41103 1.88148C2.75247 2.21703 2.21703 2.75247 1.88148 3.41103C1.5 4.15972 1.5 5.13982 1.5 7.1V16.9C1.5 18.8602 1.5 19.8403 1.88148 20.589C2.21703 21.2475 2.75247 21.783 3.41103 22.1185C4.15972 22.5 5.13982 22.5 7.1 22.5Z" stroke="black" stroke-width="2.33333" stroke-linecap="round" stroke-linejoin="round"/>
</svg>
