<svg width="23" height="22" viewBox="0 0 23 22" fill="none" xmlns="http://www.w3.org/2000/svg">
<path d="M20.8311 9.51672L20.734 9.10465H11.7776V12.8954H17.1289C16.5733 15.5336 13.9952 16.9224 11.8893 16.9224C10.357 16.9224 8.74184 16.2779 7.67277 15.2419C7.10874 14.6866 6.65977 14.0254 6.35157 13.2964C6.04337 12.5673 5.88199 11.7846 5.87668 10.9931C5.87668 9.39641 6.59426 7.79926 7.6384 6.74867C8.68254 5.69809 10.2595 5.11027 11.8274 5.11027C13.6231 5.11027 14.91 6.06375 15.3912 6.49859L18.085 3.81906C17.2948 3.12469 15.124 1.375 11.7406 1.375C9.13027 1.375 6.62734 2.37488 4.79773 4.19848C2.99219 5.99414 2.05762 8.59074 2.05762 11C2.05762 13.4093 2.94191 15.8761 4.6916 17.6859C6.56117 19.6161 9.20891 20.625 11.9353 20.625C14.4159 20.625 16.7671 19.653 18.4429 17.8896C20.0903 16.1537 20.9424 13.7517 20.9424 11.2338C20.9424 10.1737 20.8358 9.54422 20.8311 9.51672Z" fill="white"/>
</svg>
