<svg width="32" height="30" viewBox="0 0 32 30" fill="none" xmlns="http://www.w3.org/2000/svg">
<path d="M30.666 11.64C30.666 6.96148 27.1224 1.66667 21.4808 1.66667C19.0448 1.66667 17.2446 2.614 15.9994 3.6811C14.7541 2.614 12.9539 1.66667 10.5179 1.66667C4.87633 1.66667 1.33268 6.96148 1.33268 11.64C1.33268 14.1006 2.28554 16.3729 3.60873 18.3455C4.93298 20.3197 6.67612 22.0666 8.38453 23.5064C10.0979 24.9505 11.813 26.1162 13.1145 26.9214C13.7661 27.3246 14.3198 27.6409 14.725 27.8596C14.9265 27.9684 15.0977 28.0566 15.2298 28.1205C15.2941 28.1516 15.3611 28.1828 15.4235 28.209C15.453 28.2214 15.4982 28.2398 15.5502 28.2575C15.5758 28.2662 15.6188 28.2801 15.6719 28.2932L15.6728 28.2934C15.7066 28.3018 15.8344 28.3333 15.9993 28.3333C16.1643 28.3333 16.292 28.3018 16.3258 28.2934L16.3268 28.2932C16.3799 28.2801 16.4229 28.2662 16.4485 28.2575C16.5005 28.2398 16.5457 28.2214 16.5752 28.209C16.6376 28.1828 16.7046 28.1516 16.7689 28.1205C16.901 28.0566 17.0722 27.9684 17.2737 27.8596C17.6789 27.6409 18.2326 27.3246 18.8842 26.9214C20.1857 26.1162 21.9008 24.9505 23.6142 23.5064C25.3226 22.0666 27.0657 20.3197 28.39 18.3455C29.7132 16.3729 30.666 14.1006 30.666 11.64Z" fill="#1BC137" stroke="#009F20" stroke-width="2.66667" stroke-linecap="round" stroke-linejoin="round"/>
</svg>
